<svg fill="none" height="23" viewBox="0 0 23 23" width="23" xmlns="http://www.w3.org/2000/svg"><path d="m11.2003-.00000008c1.61-.00000002 3.0099.90562508 3.7143 2.23562008 1.4394-.44187 3.0669-.09625 4.2043 1.04563 1.1375 1.14187 1.4875 2.76937 1.0456 4.20875 1.3299.7 2.2355 2.1 2.2355 3.71s-.9057 3.01-2.2357 3.7144c.4418 1.4394.0918 3.0668-1.0457 4.2043-1.1376 1.1376-2.7694 1.4876-4.2088 1.0457-.7 1.33-2.1001 2.2356-3.7101 2.2356-1.60996 0-3.00994-.9056-3.71428-2.2356-1.43939.4419-3.06688.0919-4.20435-1.0457-1.13748-1.1375-1.48744-2.7693-1.04553-4.2087-1.329984-.7-2.23557637-2.1-2.2355392-3.71s.9056942-3.01 2.2357092-3.71437c-.44184-1.43938-.09618-3.06688 1.04572-4.20438s2.76941-1.4875 4.20878-1.04563c.70003-1.329995 2.10005-2.23562007 3.71009-2.23562008zm3.9767 7.20125008c-.4681-.34125-1.1244-.23625-1.4657.23187l-3.74508 5.14938-1.15935-1.1988c-.40249-.4156-1.06749-.4287-1.48312-.0262-.41564.4025-.42878 1.0675-.02629 1.4831l2.02995 2.1c.21438.2231.51625.3413.82689.3194.3106-.0219.595-.1794.7787-.4287l4.4758-6.16443c.3413-.46812.2363-1.12437-.2318-1.46562z" fill="#1c1c1c"/></svg>